<svg width="36" height="36" viewBox="0 0 36 36" fill="none" xmlns="http://www.w3.org/2000/svg">
<path d="M19.1584 4.3758L20.8131 6.11266C21.5031 6.83689 22.492 7.19683 23.4861 7.08553L25.87 6.81862C26.7785 6.71692 27.5873 7.39562 27.6449 8.30789L27.796 10.702C27.859 11.7003 28.3852 12.6117 29.2183 13.1654L31.2161 14.4933C31.9773 14.9993 32.1607 16.0392 31.6184 16.775L30.1952 18.7062C29.6018 19.5114 29.4191 20.5478 29.7013 21.5074L30.3781 23.8089C30.636 24.6858 30.1081 25.6002 29.2197 25.8153L26.8882 26.3799C25.916 26.6153 25.1098 27.2918 24.7092 28.2083L23.7483 30.4063C23.3822 31.2439 22.39 31.605 21.5712 31.1988L19.4222 30.1326C18.5262 29.688 17.4738 29.688 16.5778 30.1326L14.4288 31.1988C13.61 31.605 12.6178 31.2439 12.2517 30.4063L11.2908 28.2083C10.8902 27.2918 10.084 26.6153 9.11182 26.3799L6.78032 25.8153C5.89191 25.6002 5.36397 24.6858 5.62187 23.8089L6.2987 21.5074C6.58092 20.5478 6.39818 19.5114 5.80476 18.7062L4.38162 16.775C3.83933 16.0392 4.02269 14.9993 4.78394 14.4933L6.78175 13.1654C7.61478 12.6117 8.14098 11.7003 8.20399 10.702L8.35511 8.30789C8.41269 7.39562 9.22154 6.71692 10.13 6.81862L12.5139 7.08553C13.508 7.19683 14.4969 6.83689 15.1869 6.11266L16.8416 4.3758C17.4721 3.71397 18.5279 3.71397 19.1584 4.3758Z" fill="url(#paint0_linear_465_341)" stroke="url(#paint1_linear_465_341)" stroke-width="1.6"/>
<path d="M16.601 22L23.6004 15.3332L22.2005 14L16.601 19.3336L13.8003 16.6664L12.4004 17.9995L16.601 22Z" fill="#F2F0F7"/>
<defs>
<linearGradient id="paint0_linear_465_341" x1="29.5429" y1="3.71429" x2="7.48571" y2="33.2" gradientUnits="userSpaceOnUse">
<stop stop-color="#f05353"/>
<stop offset="1" stop-color="#bd1111"/>
</linearGradient>
<linearGradient id="paint1_linear_465_341" x1="29.5429" y1="3.71429" x2="7.48571" y2="33.2" gradientUnits="userSpaceOnUse">
<stop stop-color="#f05353"/>
<stop offset="1" stop-color="#bd1111"/>
</linearGradient>
</defs>
</svg>
