<svg width="32" height="32" viewBox="0 0 32 32" fill="none" xmlns="http://www.w3.org/2000/svg">
<g clip-path="url(#clip0_77_4)">
<g filter="url(#filter0_i_77_4)">
<path fill-rule="evenodd" clip-rule="evenodd" d="M15.9743 0.466736C7.47506 0.466736 0.560618 7.38118 0.560618 15.8803C0.560618 18.8702 1.40934 21.7417 3.02249 24.234L0.680999 29.3918C0.465187 29.8673 0.54378 30.4245 0.882555 30.8217C1.14212 31.126 1.5185 31.2942 1.90672 31.2942C2.02532 31.2942 2.14499 31.2786 2.2627 31.2462L8.71433 29.4761C10.9416 30.6673 13.4394 31.2942 15.9743 31.2942C24.4735 31.2942 31.3881 24.3796 31.3881 15.8804C31.3881 7.38118 24.4735 0.466736 15.9743 0.466736ZM15.9743 28.6022C13.7232 28.6022 11.5081 28.0033 9.56876 26.8701C9.36088 26.7486 9.12618 26.6864 8.88978 26.6864C8.77038 26.6864 8.65062 26.7023 8.53363 26.7344L4.31897 27.8907L5.78697 24.6568C5.98648 24.2171 5.93534 23.7044 5.65287 23.3129C4.08258 21.1364 3.25266 18.5664 3.25266 15.8803C3.25266 8.86557 8.95956 3.15867 15.9743 3.15867C22.9892 3.15867 28.6961 8.86557 28.6961 15.8803C28.6961 22.8952 22.9892 28.6022 15.9743 28.6022Z" fill="#FF0000" fill-opacity="0.8"/>
<path fill-rule="evenodd" clip-rule="evenodd" d="M21.9004 18.1886C21.2548 17.8025 20.4148 17.3714 19.6544 17.6826C19.0711 17.9213 18.6986 18.8345 18.3207 19.3009C18.1265 19.5403 17.895 19.5777 17.5972 19.4577C15.4072 18.5854 13.729 17.1234 12.5205 15.1091C12.3158 14.796 12.3526 14.5491 12.5993 14.2588C12.9645 13.8292 13.4228 13.3411 13.5215 12.7616C13.6203 12.1824 13.3487 11.5051 13.1091 10.9894C12.8032 10.3303 12.461 9.39033 11.8009 9.01751C11.1937 8.67464 10.3945 8.86657 9.85371 9.30693C8.92042 10.067 8.47017 11.2577 8.48363 12.4382C8.48746 12.7736 8.52872 13.108 8.60704 13.4318C8.79532 14.2104 9.15512 14.9373 9.5602 15.6286C9.86547 16.1496 10.1973 16.6554 10.5553 17.1417C11.7268 18.7331 13.1841 20.1159 14.8714 21.1493C15.7145 21.6657 16.6226 22.1186 17.563 22.4292C18.6176 22.7776 19.5573 23.1404 20.6961 22.9241C21.8885 22.6977 23.0638 21.9598 23.5371 20.8107C23.6771 20.4707 23.7474 20.0917 23.669 19.7324C23.5069 18.9896 22.5012 18.548 21.9004 18.1886Z" fill="#FF0000" fill-opacity="0.8"/>
</g>
</g>
<defs>
<filter id="filter0_i_77_4" x="0.560608" y="0.466736" width="30.8275" height="34.8275" filterUnits="userSpaceOnUse" color-interpolation-filters="sRGB">
<feFlood flood-opacity="0" result="BackgroundImageFix"/>
<feBlend mode="normal" in="SourceGraphic" in2="BackgroundImageFix" result="shape"/>
<feColorMatrix in="SourceAlpha" type="matrix" values="0 0 0 0 0 0 0 0 0 0 0 0 0 0 0 0 0 0 127 0" result="hardAlpha"/>
<feOffset dy="4"/>
<feGaussianBlur stdDeviation="2"/>
<feComposite in2="hardAlpha" operator="arithmetic" k2="-1" k3="1"/>
<feColorMatrix type="matrix" values="0 0 0 0 0.516667 0 0 0 0 0 0 0 0 0 0 0 0 0 0.8 0"/>
<feBlend mode="normal" in2="shape" result="effect1_innerShadow_77_4"/>
</filter>
<clipPath id="clip0_77_4">
<rect width="32" height="32" fill="white"/>
</clipPath>
</defs>
</svg>
