<svg width="56" height="56" viewBox="0 0 56 56" fill="none" xmlns="http://www.w3.org/2000/svg">
<path d="M31.092 9.55435L41.6423 15.6455C42.5473 16.1681 43.1946 16.5425 43.6799 16.8902C44.1561 17.2316 44.4431 17.5249 44.6413 17.8681C44.8394 18.2113 44.9499 18.6065 45.0074 19.1896C45.066 19.7837 45.0666 20.5315 45.0666 21.5766V33.7589C45.0666 34.804 45.066 35.5518 45.0074 36.1459C44.9499 36.729 44.8394 37.1242 44.6413 37.4674C44.4431 37.8106 44.1561 38.1039 43.6799 38.4453C43.1946 38.7931 42.5473 39.1674 41.6423 39.69L31.092 45.7812C30.187 46.3037 29.5391 46.6771 28.9953 46.9234C28.4616 47.1652 28.0641 47.2671 27.6678 47.2671C27.2715 47.2671 26.8739 47.1652 26.3402 46.9234C25.7964 46.6771 25.1485 46.3037 24.2435 45.7812L13.6932 39.69C12.7882 39.1675 12.1409 38.7931 11.6556 38.4453C11.1794 38.1039 10.8924 37.8106 10.6942 37.4674C10.4961 37.1242 10.3856 36.729 10.3281 36.1459C10.2695 35.5518 10.269 34.804 10.269 33.759V21.5766C10.269 20.5315 10.2695 19.7837 10.3281 19.1896C10.3856 18.6065 10.4961 18.2113 10.6942 17.8681C10.8924 17.5249 11.1794 17.2316 11.6556 16.8902C12.1409 16.5425 12.7882 16.1681 13.6932 15.6456L24.2435 9.55435C25.1485 9.03185 25.7964 8.65842 26.3402 8.41209C26.8739 8.17031 27.2715 8.06841 27.6678 8.06841C28.0641 8.06841 28.4616 8.17031 28.9953 8.41209C29.5391 8.65842 30.187 9.03185 31.092 9.55435Z" fill="url(#paint0_linear_553_3800)" stroke="#EA77FD"/>
<g filter="url(#filter0_bd_553_3800)">
<path d="M21.2383 31.0714V16.3362C21.2383 14.9399 21.2383 14.2417 21.6925 13.9756C22.1468 13.7095 22.7558 14.0509 23.9738 14.7337L31.7695 19.1041C33.5164 20.134 34.107 21.0835 34.163 23.7314V38.6688C34.163 40.1105 34.163 40.8314 33.6961 41.0951C33.2293 41.3587 32.6119 40.9865 31.3772 40.2421L23.3126 35.3796C21.6002 34.308 21.2739 33.2791 21.2383 31.0714Z" fill="url(#paint1_linear_553_3800)" shape-rendering="crispEdges"/>
<path d="M21.2383 31.0714V16.3362C21.2383 14.9399 21.2383 14.2417 21.6925 13.9756C22.1468 13.7095 22.7558 14.0509 23.9738 14.7337L31.7695 19.1041C33.5164 20.134 34.107 21.0835 34.163 23.7314V38.6688C34.163 40.1105 34.163 40.8314 33.6961 41.0951C33.2293 41.3587 32.6119 40.9865 31.3772 40.2421L23.3126 35.3796C21.6002 34.308 21.2739 33.2791 21.2383 31.0714Z" stroke="#FDF3FF" shape-rendering="crispEdges"/>
</g>
<defs>
<filter id="filter0_bd_553_3800" x="15.2269" y="8.33298" width="24.9476" height="39.3174" filterUnits="userSpaceOnUse" color-interpolation-filters="sRGB">
<feFlood flood-opacity="0" result="BackgroundImageFix"/>
<feGaussianBlur in="BackgroundImageFix" stdDeviation="0.918567"/>
<feComposite in2="SourceAlpha" operator="in" result="effect1_backgroundBlur_553_3800"/>
<feColorMatrix in="SourceAlpha" type="matrix" values="0 0 0 0 0 0 0 0 0 0 0 0 0 0 0 0 0 0 127 0" result="hardAlpha"/>
<feOffset dy="0.459283"/>
<feGaussianBlur stdDeviation="2.7557"/>
<feComposite in2="hardAlpha" operator="out"/>
<feColorMatrix type="matrix" values="0 0 0 0 0.22973 0 0 0 0 0.0388507 0 0 0 0 0.279167 0 0 0 0.6 0"/>
<feBlend mode="normal" in2="effect1_backgroundBlur_553_3800" result="effect2_dropShadow_553_3800"/>
<feBlend mode="normal" in="SourceGraphic" in2="effect2_dropShadow_553_3800" result="shape"/>
</filter>
<linearGradient id="paint0_linear_553_3800" x1="45.1243" y1="4.95369" x2="10.687" y2="49.6978" gradientUnits="userSpaceOnUse">
<stop stop-color="#e74141"/>
<stop offset="1" stop-color="#c80000"/>
</linearGradient>
<linearGradient id="paint1_linear_553_3800" x1="27.6769" y1="16.8583" x2="27.6769" y2="38.3298" gradientUnits="userSpaceOnUse">
<stop stop-color="#ffd7d7"/>
<stop offset="1" stop-color="#ffd7d7" stop-opacity="0.5"/>
</linearGradient>
</defs>
</svg>
