<svg width="56" height="56" viewBox="0 0 56 56" fill="none" xmlns="http://www.w3.org/2000/svg">
<g clip-path="url(#clip0_553_3797)">
<mask id="path-1-inside-1_553_3797" fill="white">
<path d="M42.0102 17.5115C43.9064 15.6153 44.8545 14.6672 44.6732 13.3162C44.492 11.9651 43.5079 11.4033 41.5397 10.2797C40.787 9.85 40.0064 9.46718 39.2023 9.1341C36.6947 8.09544 34.0072 7.56086 31.2931 7.56086C28.5789 7.56086 25.8914 8.09544 23.3839 9.1341C20.8763 10.1727 18.5979 11.6951 16.6788 13.6143C14.7596 15.5335 13.2372 17.8119 12.1986 20.3194C11.1599 22.8269 10.6253 25.5145 10.6253 28.2286C10.6253 30.9427 11.1599 33.6303 12.1986 36.1378C12.5316 36.9419 12.9145 37.7225 13.3442 38.4752C14.4678 40.4435 15.0296 41.4276 16.3806 41.6088C17.7317 41.79 18.6798 40.8419 20.5759 38.9458L31.2931 28.2286L42.0102 17.5115Z"/>
</mask>
<path d="M42.0102 17.5115C43.9064 15.6153 44.8545 14.6672 44.6732 13.3162C44.492 11.9651 43.5079 11.4033 41.5397 10.2797C40.787 9.85 40.0064 9.46718 39.2023 9.1341C36.6947 8.09544 34.0072 7.56086 31.2931 7.56086C28.5789 7.56086 25.8914 8.09544 23.3839 9.1341C20.8763 10.1727 18.5979 11.6951 16.6788 13.6143C14.7596 15.5335 13.2372 17.8119 12.1986 20.3194C11.1599 22.8269 10.6253 25.5145 10.6253 28.2286C10.6253 30.9427 11.1599 33.6303 12.1986 36.1378C12.5316 36.9419 12.9145 37.7225 13.3442 38.4752C14.4678 40.4435 15.0296 41.4276 16.3806 41.6088C17.7317 41.79 18.6798 40.8419 20.5759 38.9458L31.2931 28.2286L42.0102 17.5115Z" fill="url(#paint0_linear_553_3797)" stroke="#AF5FFF" stroke-width="2" mask="url(#path-1-inside-1_553_3797)"/>
<g filter="url(#filter0_bd_553_3797)">
<mask id="path-2-inside-2_553_3797" fill="white">
<path d="M20.5114 17.6134C18.6152 15.7173 17.6671 14.7692 16.3161 14.9504C14.9651 15.1316 14.4032 16.1157 13.2796 18.084C12.8499 18.8367 12.4671 19.6173 12.134 20.4214C11.0954 22.9289 10.5608 25.6165 10.5608 28.3306C10.5608 31.0447 11.0954 33.7323 12.134 36.2398C13.1727 38.7473 14.695 41.0257 16.6142 42.9449C18.5334 44.8641 20.8118 46.3865 23.3193 47.4251C25.8268 48.4638 28.5144 48.9983 31.2285 48.9983C33.9426 48.9983 36.6302 48.4638 39.1377 47.4251C39.9419 47.092 40.7224 46.7092 41.4751 46.2795C43.4434 45.1559 44.4275 44.5941 44.6087 43.243C44.7899 41.892 43.8418 40.9439 41.9457 39.0477L31.2285 28.3306L20.5114 17.6134Z"/>
</mask>
<path d="M20.5114 17.6134C18.6152 15.7173 17.6671 14.7692 16.3161 14.9504C14.9651 15.1316 14.4032 16.1157 13.2796 18.084C12.8499 18.8367 12.4671 19.6173 12.134 20.4214C11.0954 22.9289 10.5608 25.6165 10.5608 28.3306C10.5608 31.0447 11.0954 33.7323 12.134 36.2398C13.1727 38.7473 14.695 41.0257 16.6142 42.9449C18.5334 44.8641 20.8118 46.3865 23.3193 47.4251C25.8268 48.4638 28.5144 48.9983 31.2285 48.9983C33.9426 48.9983 36.6302 48.4638 39.1377 47.4251C39.9419 47.092 40.7224 46.7092 41.4751 46.2795C43.4434 45.1559 44.4275 44.5941 44.6087 43.243C44.7899 41.892 43.8418 40.9439 41.9457 39.0477L31.2285 28.3306L20.5114 17.6134Z" fill="url(#paint1_linear_553_3797)" shape-rendering="crispEdges"/>
<path d="M20.5114 17.6134C18.6152 15.7173 17.6671 14.7692 16.3161 14.9504C14.9651 15.1316 14.4032 16.1157 13.2796 18.084C12.8499 18.8367 12.4671 19.6173 12.134 20.4214C11.0954 22.9289 10.5608 25.6165 10.5608 28.3306C10.5608 31.0447 11.0954 33.7323 12.134 36.2398C13.1727 38.7473 14.695 41.0257 16.6142 42.9449C18.5334 44.8641 20.8118 46.3865 23.3193 47.4251C25.8268 48.4638 28.5144 48.9983 31.2285 48.9983C33.9426 48.9983 36.6302 48.4638 39.1377 47.4251C39.9419 47.092 40.7224 46.7092 41.4751 46.2795C43.4434 45.1559 44.4275 44.5941 44.6087 43.243C44.7899 41.892 43.8418 40.9439 41.9457 39.0477L31.2285 28.3306L20.5114 17.6134Z" stroke="#F8F1FF" stroke-width="2" shape-rendering="crispEdges" mask="url(#path-2-inside-2_553_3797)"/>
</g>
</g>
<defs>
<filter id="filter0_bd_553_3797" x="-0.462255" y="2.52785" width="56.1159" height="56.1155" filterUnits="userSpaceOnUse" color-interpolation-filters="sRGB">
<feFlood flood-opacity="0" result="BackgroundImageFix"/>
<feGaussianBlur in="BackgroundImageFix" stdDeviation="0.918567"/>
<feComposite in2="SourceAlpha" operator="in" result="effect1_backgroundBlur_553_3797"/>
<feColorMatrix in="SourceAlpha" type="matrix" values="0 0 0 0 0 0 0 0 0 0 0 0 0 0 0 0 0 0 127 0" result="hardAlpha"/>
<feOffset dy="-1.37785"/>
<feGaussianBlur stdDeviation="5.5114"/>
<feComposite in2="hardAlpha" operator="out"/>
<feColorMatrix type="matrix" values="0 0 0 0 0.0837395 0 0 0 0 0.0051389 0 0 0 0 0.166667 0 0 0 0.6 0"/>
<feBlend mode="normal" in2="effect1_backgroundBlur_553_3797" result="effect2_dropShadow_553_3797"/>
<feBlend mode="normal" in="SourceGraphic" in2="effect2_dropShadow_553_3797" result="shape"/>
</filter>
<linearGradient id="paint0_linear_553_3797" x1="37.3825" y1="13.1714" x2="21.4395" y2="35.0929" gradientUnits="userSpaceOnUse">
<stop stop-color="#ef0c0c"/>
<stop offset="1" stop-color="#b00a0a"/>
</linearGradient>
<linearGradient id="paint1_linear_553_3797" x1="25.3085" y1="42.977" x2="22.7825" y2="25.1797" gradientUnits="userSpaceOnUse">
<stop stop-color="#ffd8d8"/>
<stop offset="1" stop-color="#ffd8d8" stop-opacity="0.6"/>
</linearGradient>
<clipPath id="clip0_553_3797">
<rect width="56" height="56" fill="white"/>
</clipPath>
</defs>
</svg>
