<svg width="201" height="73" viewBox="0 0 201 73" fill="none" xmlns="http://www.w3.org/2000/svg">
<path d="M1.54544 46.9677C1.74826 46.7368 1.85746 46.1252 1.95887 45.5135C2.01347 45.2019 1.95887 45.0518 1.90426 45.0518C2.99632 41.5088 7.00573 34.5727 10.8045 28.1097C13.2539 23.8742 15.5394 19.8695 16.8966 17.0996C19.2914 16.788 21.2649 16.638 22.7235 16.638C26.733 16.638 27.669 17.0996 27.669 18.7154C27.669 18.9462 27.825 19.177 27.981 19.177C28.137 19.177 28.293 18.9462 28.293 18.7154C28.293 16.4072 27.045 15.784 22.7235 15.784C21.4209 15.784 19.7048 15.8648 17.4115 16.1764L17.5675 15.6339C17.6221 15.6339 17.6221 15.5531 17.6221 15.4031C17.6221 15.1723 17.4661 15.0223 17.3101 15.0223C17.2087 15.0223 17.0995 15.0915 17.0527 15.1723C16.9434 15.5531 16.7874 15.8647 16.5846 16.2456C12.4192 16.788 7.10713 17.8729 1.64685 19.327C1.49084 19.327 1.38164 19.4886 1.38164 19.7194C1.38164 19.9503 1.49084 20.1811 1.70145 20.1811H1.74826C7.00573 18.7962 12.0526 17.7921 16.1166 17.2497C14.7593 19.9503 12.6298 23.6434 10.3365 27.4865C6.12428 34.7342 1.54544 42.5821 1.06962 45.8136C1.02282 46.1252 0.968215 46.4368 1.02282 46.5868C1.02282 46.9676 1.33483 47.1985 1.54544 46.9677Z" stroke="#F0F2F7"/>
<path d="M10.4385 45.1211C10.6491 45.1211 11.2731 44.1978 12.0532 42.9629C12.7318 42.0397 13.6133 40.8163 14.4947 39.5006C17.3574 35.4959 19.3934 33.3493 20.2202 33.3493C20.3294 33.3493 20.3762 33.4186 20.3762 33.6494C20.3762 34.1918 20.1188 35.0343 19.9082 35.8883C19.6508 36.8116 19.3934 37.8041 19.3934 38.6582C19.3934 40.0431 20.0174 40.8856 21.1094 40.8856C23.551 40.8856 28.707 37.1924 31.4138 34.5727C31.5152 34.5034 31.5698 34.3418 31.5698 34.1918C31.5698 33.961 31.4138 33.8109 31.2578 33.8109H31.1018C28.395 36.4192 23.395 39.9623 21.1094 39.9623C20.3294 39.9623 19.9628 39.5814 19.9628 38.6582C19.9628 38.0465 20.2202 37.1925 20.4308 36.2692C20.6882 35.3459 20.9534 34.4226 20.9534 33.6494C20.9534 32.8877 20.6882 32.4953 20.2202 32.4953C19.1281 32.4953 17.1 34.6534 14.0813 38.889C13.1998 40.1239 12.3106 41.3472 11.6319 42.3513C11.1171 43.2053 10.8519 43.2745 11.2731 42.2012C12.0532 40.3547 13.3558 37.6541 15.0173 34.5034C26.1563 24.105 36.6166 6.55119 36.6166 2.69651C36.6166 1.85402 36.3046 1.39238 35.7274 1.39238C32.8725 1.39238 10.0251 39.7315 10.0251 44.5094C10.0251 44.8903 10.1811 45.1211 10.4385 45.1211ZM16.2186 32.3452C23.0829 19.7887 34.0659 2.31566 35.7274 2.31566C35.9926 2.31566 36.0394 2.39644 36.0394 2.69651C36.0394 6.08955 26.6789 21.866 16.2186 32.3452Z" stroke="#F0F2F7"/>
<path d="M33.8002 30.5679C33.9094 30.5679 33.9562 30.5679 34.0108 30.4179L34.2215 30.1063C34.3775 29.7254 34.5803 29.3446 34.6895 29.183C34.7363 29.1138 34.7363 28.9522 34.7363 28.883C34.7363 28.6521 34.6349 28.4213 34.4789 28.4213C34.3775 28.4213 34.2683 28.4906 34.2215 28.5714C34.1122 28.8022 33.9094 29.2638 33.7534 29.5754L33.5428 29.8755C33.4882 29.9563 33.4882 30.0371 33.4882 30.1871C33.4882 30.4179 33.6442 30.5679 33.8002 30.5679ZM30.4695 40.9663C32.2401 40.9663 37.7082 37.1925 40.5164 34.5727C40.571 34.5034 40.6178 34.3418 40.6178 34.1918C40.6178 33.961 40.5164 33.811 40.3058 33.811H40.1498C37.443 36.4192 32.0841 40.0431 30.4695 40.0431C29.9 40.0431 29.6426 39.7315 29.6426 38.9698C29.6426 37.8849 30.8907 35.2651 32.6614 32.5761C32.7082 32.4953 32.7628 32.4145 32.7628 32.2645C32.7628 32.0336 32.6068 31.8836 32.4508 31.8836C32.3494 31.8836 32.2948 31.8836 32.2401 31.9529C30.3134 34.8843 29.0654 37.5041 29.0654 38.9698C29.0654 40.1931 29.588 40.9663 30.4695 40.9663Z" stroke="#F0F2F7"/>
<path d="M46.1902 40.5855C48.0077 40.5855 52.7971 37.6541 55.7145 34.5727C55.7613 34.5034 55.8159 34.3418 55.8159 34.1918C55.8159 33.961 55.7145 33.811 55.5585 33.811C55.4493 33.811 55.4025 33.811 55.3479 33.8802C52.4305 37.1117 47.7971 39.6622 46.1902 39.6622C45.3009 39.6622 44.8875 39.2698 44.8875 38.2773C44.8875 36.8116 45.7222 34.965 46.3462 33.6494C46.705 32.8877 46.9156 32.4145 46.9156 32.1144C46.9156 31.8028 46.7596 31.572 46.549 31.572C46.2916 31.572 45.6676 32.1837 44.5755 33.4186C44.2635 32.5761 43.8969 32.2645 43.1168 32.2645C41.3461 32.2645 36.6659 36.5808 36.6659 39.2006C36.6659 39.9623 37.0247 40.4239 37.6019 40.4239C39.0606 40.4239 42.2822 36.8808 44.4741 34.5727C44.8875 34.111 45.2541 33.7302 45.5115 33.4993C45.613 33.3493 45.769 33.4186 45.613 33.6494C44.9889 35.0343 44.3103 36.7308 44.3103 38.2773C44.3103 39.8123 44.9421 40.5855 46.1902 40.5855ZM37.6019 39.5006C37.3367 39.5006 37.2353 39.4314 37.2353 39.2006C37.2353 37.3425 41.3461 33.1185 43.1168 33.1185C43.6863 33.1185 43.8423 33.2685 44.0529 33.8802C41.9234 36.2692 38.85 39.5006 37.6019 39.5006Z" stroke="#F0F2F7"/>
<path d="M34.4728 72C36.4541 72 39.6834 68.5262 44.3637 61.5208C47.0704 57.4468 49.3637 53.9846 51.2358 50.9724C53.3185 48.895 55.6586 46.6676 58.1548 44.2786C62.835 39.893 66.6416 36.1884 67.8897 34.7342C67.9911 34.6534 67.9911 34.5034 67.9911 34.3418C67.9911 34.111 67.8897 33.961 67.7337 33.961C67.6245 33.961 67.5777 33.961 67.5231 34.0418C66.275 35.4959 62.4762 39.1198 57.8428 43.5054L52.8505 48.3641C56.1267 42.9629 57.9988 39.4314 59.3014 36.9616C60.6041 34.4226 60.9161 33.7302 60.9161 32.9569C60.9161 32.1837 60.3389 31.8028 59.6135 31.8028C56.8521 31.8028 51.6492 36.5808 51.6492 39.1198C51.6492 39.9623 51.9613 40.4239 52.5307 40.4239C53.3653 40.4239 55.1906 39.1198 58.2562 36.35C59.0908 35.5767 59.1454 35.7267 58.8334 36.4192C57.3201 39.2006 55.0814 43.5054 50.8146 50.2799C38.2247 62.4441 33.2247 68.0645 33.2247 70.2227C33.2247 71.3075 33.7473 72 34.4728 72ZM52.5307 39.5814C52.3279 39.5814 52.2733 39.4314 52.2733 39.1198C52.2733 37.1925 57.2733 32.7261 59.6135 32.7261C60.0269 32.7261 60.2921 32.8877 60.2921 32.9569C60.2921 33.1185 60.2921 33.1877 60.2375 33.3493L60.0815 33.5801C59.6681 33.961 58.9894 34.6534 57.9442 35.5767C54.98 38.1965 53.1625 39.5814 52.5307 39.5814ZM34.4728 71.0767C34.0593 71.0767 33.8019 70.7651 33.8019 70.2227C33.8019 68.6877 38.3808 63.4481 49.0985 52.9805C47.593 55.3695 45.8769 57.9777 43.9502 60.9091C39.3714 67.6837 36.1966 71.0767 34.4728 71.0767Z" stroke="#F0F2F7"/>
<path d="M66.324 41.1164C67.9855 41.1164 69.6002 36.9616 69.2882 33.961C69.2882 33.8109 69.3428 33.6494 69.4442 33.8109C72.4629 36.5808 76.4723 36.8808 79.1791 34.5727C79.2805 34.5034 79.3897 34.3418 79.3897 34.1918C79.3897 33.961 79.2337 33.8109 79.0777 33.8109H78.9217C76.4177 35.9576 72.775 35.6575 69.9668 33.1877C69.8654 33.1185 69.8654 33.0377 69.9668 32.9569C70.0214 32.8877 70.1228 32.8877 70.1774 32.8069C70.3334 32.8069 70.3802 32.6453 70.3802 32.4145C70.3802 32.1837 70.2788 31.9529 70.1228 31.9529C70.0682 31.9529 70.0214 31.9529 70.0214 32.0336C69.7562 32.1144 69.4988 32.2645 69.2882 32.4145C69.1868 32.4953 69.1868 32.4953 69.0854 32.4145C68.8748 32.3452 68.6641 32.5761 68.5627 32.8877C68.5627 32.9569 68.5081 32.9569 68.5081 33.0377C66.6906 34.6534 65.3334 37.1924 65.3334 39.3506C65.3334 40.4239 65.7 41.1164 66.324 41.1164ZM66.324 40.2739C66.0666 40.2739 65.9106 39.9623 65.9106 39.3506C65.9106 37.5733 67.1041 35.3459 68.7187 33.8802C68.9762 36.35 67.5721 40.2739 66.324 40.2739Z" stroke="#F0F2F7"/>
<path d="M91.2003 46.9677C91.4031 46.7368 91.5123 46.1252 91.6137 45.5135C91.6683 45.2019 91.6137 45.0518 91.5591 45.0518C92.6512 41.5088 96.6606 34.5727 100.459 28.1097C102.909 23.8742 105.194 19.8695 106.551 17.0996C108.946 16.788 110.92 16.638 112.378 16.638C116.388 16.638 117.324 17.0996 117.324 18.7154C117.324 18.9462 117.48 19.177 117.636 19.177C117.792 19.177 117.948 18.9462 117.948 18.7154C117.948 16.4072 116.7 15.784 112.378 15.784C111.076 15.784 109.36 15.8648 107.066 16.1764L107.222 15.6339C107.277 15.6339 107.277 15.5531 107.277 15.4031C107.277 15.1723 107.121 15.0223 106.965 15.0223C106.863 15.0223 106.754 15.0915 106.707 15.1723C106.598 15.5531 106.442 15.8647 106.239 16.2456C102.074 16.788 96.762 17.8729 91.3017 19.327C91.1457 19.327 91.0365 19.4886 91.0365 19.7194C91.0365 19.9503 91.1457 20.1811 91.3563 20.1811H91.4031C96.6606 18.7962 101.707 17.7921 105.771 17.2497C104.414 19.9503 102.285 23.6434 99.9913 27.4865C95.7791 34.7342 91.2003 42.5821 90.7245 45.8136C90.6777 46.1252 90.623 46.4368 90.6777 46.5868C90.6777 46.9676 90.9897 47.1985 91.2003 46.9677Z" stroke="#F0F2F7"/>
<path d="M103.947 48.8257C107.067 48.8257 116.123 40.1239 121.326 34.5727C121.381 34.5034 121.427 34.3418 121.427 34.1918C121.427 33.961 121.326 33.811 121.115 33.811C121.069 33.811 121.014 33.811 120.959 33.8802C115.811 39.4314 106.911 47.8909 103.947 47.8909C103.323 47.8909 103.112 47.5909 103.112 46.8176C103.112 44.5902 105.764 40.7355 108.315 37.0424C110.554 33.7302 112.792 30.4987 112.792 28.6521C112.792 27.7289 112.067 27.1057 111.178 25.8708C113.159 22.7201 114.61 19.8695 114.61 18.7962C114.61 18.2537 114.407 17.8729 114.04 17.8729C112.426 17.8729 108.783 21.9468 108.783 23.8742C108.783 24.5666 109.306 25.1091 110.242 26.0323C108.526 28.7214 106.341 31.6528 104.259 33.8802C104.204 33.961 104.15 34.111 104.15 34.1918C104.15 34.5034 104.259 34.6534 104.415 34.6534C104.516 34.6534 104.571 34.6534 104.618 34.5727C106.497 32.5761 108.838 29.4946 110.764 26.494C111.802 27.5673 112.168 28.1097 112.168 28.6521C112.168 30.1063 110.14 33.1185 107.902 36.35C105.351 40.1239 102.543 44.1978 102.543 46.8176C102.543 48.0525 102.956 48.8257 103.947 48.8257ZM110.655 25.4091C109.719 24.4859 109.407 24.0242 109.407 23.8742C109.407 22.5701 112.379 19.2578 113.783 18.8654C113.939 18.7962 114.04 18.9462 113.986 19.177C113.627 20.4811 111.747 23.7242 110.655 25.4091Z" stroke="#F0F2F7"/>
<path d="M123.715 30.5679C123.824 30.5679 123.871 30.5679 123.926 30.4179L124.136 30.1063C124.292 29.7254 124.495 29.3446 124.605 29.183C124.651 29.1138 124.651 28.9522 124.651 28.883C124.651 28.6521 124.55 28.4213 124.394 28.4213C124.292 28.4213 124.183 28.4906 124.136 28.5714C124.027 28.8022 123.824 29.2638 123.668 29.5754L123.458 29.8755C123.403 29.9563 123.403 30.0371 123.403 30.1871C123.403 30.4179 123.559 30.5679 123.715 30.5679ZM120.384 40.9663C122.155 40.9663 127.623 37.1925 130.431 34.5727C130.486 34.5034 130.533 34.3418 130.533 34.1918C130.533 33.961 130.431 33.811 130.221 33.811H130.065C127.358 36.4192 121.999 40.0431 120.384 40.0431C119.815 40.0431 119.558 39.7315 119.558 38.9698C119.558 37.8849 120.806 35.2651 122.576 32.5761C122.623 32.4953 122.678 32.4145 122.678 32.2645C122.678 32.0336 122.522 31.8836 122.366 31.8836C122.264 31.8836 122.21 31.8836 122.155 31.9529C120.228 34.8843 118.98 37.5041 118.98 38.9698C118.98 40.1931 119.503 40.9663 120.384 40.9663Z" stroke="#F0F2F7"/>
<path d="M127.618 40.5047C127.829 40.5047 128.297 39.893 128.921 39.2698C130.949 37.1117 135.06 32.6453 136.729 32.6453C136.932 32.6453 136.987 32.8877 136.987 33.0377C136.987 33.4186 136.776 34.6534 136.573 35.7268C136.417 36.7308 136.261 37.7349 136.261 38.1965C136.261 39.1198 136.729 39.6622 137.455 39.6622C139.327 39.6622 142.611 37.6541 145.786 34.5727C145.887 34.5034 145.942 34.3418 145.942 34.1918C145.942 33.961 145.785 33.811 145.629 33.811H145.473C142.346 36.8809 139.171 38.8082 137.455 38.8082C137.041 38.8082 136.885 38.5774 136.885 38.1965C136.885 37.8041 136.987 36.9616 137.197 35.9576C137.353 34.8035 137.556 33.5801 137.556 32.8877C137.556 32.1837 137.244 31.8028 136.729 31.8028C135.372 31.8028 132.93 33.8802 128.82 38.2773C128.554 38.5081 128.508 38.1965 128.609 37.9657C129.756 35.5767 131.994 31.722 134.069 29.4138C134.124 29.3446 134.179 29.183 134.179 29.033C134.179 28.8022 134.069 28.6521 133.913 28.6521C133.812 28.6521 133.757 28.6521 133.71 28.7214C130.692 32.1144 127.361 38.6582 127.205 39.6622C127.15 40.1239 127.306 40.5047 127.618 40.5047Z" stroke="#F0F2F7"/>
<path d="M149.685 40.5855C151.658 40.5855 156.292 38.1965 159.833 34.5727C159.934 34.5034 159.989 34.3418 159.989 34.1918C159.989 33.961 159.88 33.7302 159.677 33.7302C159.622 33.7302 159.568 33.811 159.521 33.811C156.081 37.3425 151.557 39.6622 149.685 39.6622C148.795 39.6622 148.382 39.2698 148.382 38.2773C148.382 37.5733 148.905 36.1884 149.685 34.2726C149.685 34.2726 149.685 34.2726 149.685 34.3418C149.685 34.5727 149.841 34.8035 149.997 34.8035C150.153 34.8035 150.254 34.6534 150.309 34.4226C150.309 33.961 150.254 33.5801 150.153 33.2685L151.143 31.1104C158.897 20.4811 169.56 4.01219 169.56 2.00406C169.56 1.39239 169.303 1 168.835 1C166.962 1 156.237 19.0962 150.878 30.2679C150.363 30.9603 149.895 31.572 149.419 32.2645C149.217 32.0336 148.905 31.9529 148.593 31.9529C146.252 31.9529 142.602 36.5 142.602 39.3506C142.602 40.0431 142.922 40.4239 143.28 40.4239C144.17 40.4239 146.089 37.9657 148.795 34.2726C149.006 34.0418 149.107 34.1918 148.951 34.5034C148.226 36.2692 147.812 37.5733 147.812 38.2773C147.812 39.8123 148.483 40.5855 149.685 40.5855ZM153.226 26.9556C158.842 16.0956 167.431 1.85403 168.835 1.85403C168.991 1.85403 168.991 1.93482 168.991 2.00406C168.991 3.46977 160.457 16.638 153.226 26.9556ZM143.39 39.5007C143.335 39.5007 143.234 39.5007 143.234 39.2698C143.234 36.9616 146.611 32.8877 148.593 32.8877H148.951C146.042 36.8809 143.904 39.5007 143.39 39.5007Z" stroke="#F0F2F7"/>
<path d="M165.557 40.5855C167.374 40.5855 172.163 37.6541 175.081 34.5727C175.128 34.5034 175.182 34.3418 175.182 34.1918C175.182 33.961 175.081 33.811 174.925 33.811C174.816 33.811 174.769 33.811 174.714 33.8802C171.797 37.1117 167.163 39.6622 165.557 39.6622C164.667 39.6622 164.254 39.2698 164.254 38.2773C164.254 36.8116 165.088 34.965 165.713 33.6494C166.071 32.8877 166.282 32.4145 166.282 32.1144C166.282 31.8028 166.126 31.572 165.915 31.572C165.658 31.572 165.034 32.1837 163.942 33.4186C163.63 32.5761 163.263 32.2645 162.483 32.2645C160.712 32.2645 156.032 36.5808 156.032 39.2006C156.032 39.9623 156.391 40.4239 156.968 40.4239C158.427 40.4239 161.649 36.8808 163.84 34.5727C164.254 34.111 164.62 33.7302 164.878 33.4993C164.979 33.3493 165.135 33.4186 164.979 33.6494C164.355 35.0343 163.677 36.7308 163.677 38.2773C163.677 39.8123 164.308 40.5855 165.557 40.5855ZM156.968 39.5006C156.703 39.5006 156.602 39.4314 156.602 39.2006C156.602 37.3425 160.712 33.1185 162.483 33.1185C163.053 33.1185 163.209 33.2685 163.419 33.8802C161.29 36.2692 158.216 39.5006 156.968 39.5006Z" stroke="#F0F2F7"/>
<path d="M178.98 40.5855C180.953 40.5855 185.587 38.1965 189.128 34.5727C189.23 34.5034 189.284 34.3418 189.284 34.1918C189.284 33.961 189.175 33.7302 188.972 33.7302C188.918 33.7302 188.863 33.811 188.816 33.811C185.376 37.3425 180.852 39.6622 178.98 39.6622C178.091 39.6622 177.677 39.2698 177.677 38.2773C177.677 37.5733 178.2 36.1884 178.98 34.2726C178.98 34.2726 178.98 34.2726 178.98 34.3418C178.98 34.5727 179.136 34.8035 179.292 34.8035C179.448 34.8035 179.549 34.6534 179.604 34.4226C179.604 33.961 179.549 33.5801 179.448 33.2685L180.438 31.1104C188.192 20.4811 198.855 4.01219 198.855 2.00406C198.855 1.39239 198.598 1 198.13 1C196.258 1 185.532 19.0962 180.173 30.2679C179.658 30.9603 179.19 31.572 178.715 32.2645C178.512 32.0336 178.2 31.9529 177.888 31.9529C175.548 31.9529 171.897 36.5 171.897 39.3506C171.897 40.0431 172.217 40.4239 172.576 40.4239C173.465 40.4239 175.384 37.9657 178.091 34.2726C178.301 34.0418 178.403 34.1918 178.247 34.5034C177.521 36.2692 177.108 37.5733 177.108 38.2773C177.108 39.8123 177.779 40.5855 178.98 40.5855ZM182.521 26.9556C188.137 16.0956 196.726 1.85403 198.13 1.85403C198.286 1.85403 198.286 1.93482 198.286 2.00406C198.286 3.46977 189.752 16.638 182.521 26.9556ZM172.685 39.5007C172.63 39.5007 172.529 39.5007 172.529 39.2698C172.529 36.9616 175.906 32.8877 177.888 32.8877H178.247C175.337 36.8809 173.2 39.5007 172.685 39.5007Z" stroke="#F0F2F7"/>
<path d="M189.54 40.7355C191.154 40.7355 196.201 38.5774 199.844 34.5727C199.945 34.5034 200 34.3418 200 34.1918C200 33.961 199.844 33.8109 199.688 33.8109C199.633 33.8109 199.587 33.8109 199.532 33.8802C195.944 37.7349 191.053 39.8123 189.54 39.8123C188.346 39.8123 187.722 39.3506 187.722 38.3465C187.722 37.3425 188.237 36.1191 188.916 35.0343C189.228 35.2651 189.649 35.3459 190.218 35.3459C191.154 35.3459 192.348 34.1918 192.348 33.1877C192.348 32.4145 191.989 31.9529 191.412 31.9529C189.696 31.9529 187.098 35.8075 187.098 38.3465C187.098 39.893 188.034 40.7355 189.54 40.7355ZM190.218 34.5034C189.852 34.5034 189.594 34.4226 189.384 34.3418C190.062 33.4993 190.788 32.8877 191.412 32.8877C191.677 32.8877 191.778 32.9569 191.778 33.1877C191.778 33.6494 190.788 34.5034 190.218 34.5034Z" stroke="#F0F2F7"/>
</svg>
